<svg xmlns="http://www.w3.org/2000/svg" width="512" height="512" viewBox="0 0 512 512">
  <defs>
    <radialGradient id="bg" cx="50%" cy="50%" r="50%">
      <stop offset="0%" stop-color="#1a1208"/>
      <stop offset="100%" stop-color="#0a0807"/>
    </radialGradient>
    <radialGradient id="glow" cx="50%" cy="45%" r="40%">
      <stop offset="0%" stop-color="#c9a84c" stop-opacity="0.4"/>
      <stop offset="100%" stop-color="#c9a84c" stop-opacity="0"/>
    </radialGradient>
  </defs>
  <rect width="512" height="512" rx="112" fill="url(#bg)"/>
  <rect width="512" height="512" rx="112" fill="url(#glow)"/>
  <!-- Ark base -->
  <rect x="92" y="296" width="328" height="114" rx="16" fill="none" stroke="#c9a84c" stroke-width="13"/>
  <rect x="72" y="256" width="368" height="50" rx="13" fill="none" stroke="#f0c040" stroke-width="16"/>
  <!-- Left wing -->
  <path d="M 230 256 Q 128 144 76 194 Q 112 92 216 164 Z" fill="#c9a84c" fill-opacity="0.2" stroke="#c9a84c" stroke-width="9"/>
  <!-- Right wing -->
  <path d="M 282 256 Q 384 144 436 194 Q 400 92 296 164 Z" fill="#c9a84c" fill-opacity="0.2" stroke="#c9a84c" stroke-width="9"/>
  <!-- Shekinah -->
  <ellipse cx="256" cy="238" rx="52" ry="40" fill="#ffd700" fill-opacity="0.5"/>
  <ellipse cx="256" cy="238" rx="24" ry="18" fill="#fff" fill-opacity="0.3"/>
  <!-- Poles -->
  <line x1="144" y1="410" x2="144" y2="484" stroke="#c9a84c" stroke-width="18" stroke-linecap="round"/>
  <line x1="368" y1="410" x2="368" y2="484" stroke="#c9a84c" stroke-width="18" stroke-linecap="round"/>
</svg>
